# xmcd
#
# Track frame offsets:
#         150
#       11509
#       23120
#       53110
#       73032
#       84390
#      102087
#      120412
#      139992
#      153187
#      167067
#
# Disc length:   2345 seconds
#
# Revision:        0
# Processed by: cddbd v1.5.2PL0 Copyright (c) Steve Scherf et al.
# Submitted via: libcddb 1.3.2
#
DISCID=8209270b
DTITLE=野坂昭如 - 分裂唄草紙
DYEAR=1974
DGENRE=blues
TTITLE0=終末のタンゴ
TTITLE1=巡礼
TTITLE2=金地獄雀歌草紙
TTITLE3=十人の女学生
TTITLE4=おんじょろ節
TTITLE5=うられうられて
TTITLE6=河
TTITLE7=スケッチ
TTITLE8=大懺悔
TTITLE9=酒を
TTITLE10=できそこないのロック
EXTD=
EXTT0=
EXTT1=
EXTT2=
EXTT3=
EXTT4=
EXTT5=
EXTT6=
EXTT7=
EXTT8=
EXTT9=
EXTT10=
PLAYORDER=
